<?xml version="1.0" standalone="no"?>
<!DOCTYPE svg PUBLIC "-//W3C//DTD SVG 20010904//EN"
 "http://www.w3.org/TR/2001/REC-SVG-20010904/DTD/svg10.dtd">
<svg version="1.0" xmlns="http://www.w3.org/2000/svg"
 width="512.000000pt" height="512.000000pt" viewBox="0 0 512.000000 512.000000"
 preserveAspectRatio="xMidYMid meet">

<g transform="translate(0.000000,512.000000) scale(0.100000,-0.100000)"
fill="#000000" stroke="none">
<path d="M375 4353 c-11 -2 -42 -11 -69 -20 l-48 -15 538 -540 c908 -909 1494
-1481 1548 -1511 134 -74 298 -74 432 0 54 30 640 602 1548 1511 l538 539 -48
19 c-47 18 -120 19 -2234 20 -1202 1 -2194 0 -2205 -3z"/>
<path d="M24 4053 c-18 -46 -19 -113 -22 -1463 -2 -1414 -1 -1467 31 -1544
l12 -28 775 770 775 771 -440 441 c-242 243 -591 590 -776 771 l-337 329 -18
-47z"/>
<path d="M4299 3331 l-774 -771 774 -771 c576 -572 777 -767 783 -756 4 8 14
41 23 73 13 51 15 238 15 1454 0 1216 -2 1403 -15 1454 -9 32 -19 65 -23 73
-6 11 -207 -184 -783 -756z"/>
<path d="M1029 1572 l-774 -769 55 -19 c53 -18 116 -19 2250 -19 2119 0 2197
1 2249 19 l53 18 -438 440 c-242 242 -591 588 -777 770 l-337 331 -138 -134
c-75 -74 -164 -152 -196 -173 -208 -138 -477 -163 -707 -67 -102 43 -173 96
-320 239 -75 72 -139 132 -142 132 -2 0 -353 -346 -778 -768z"/>
</g>
</svg>
